<svg width="32" height="32" viewBox="0 0 32 32" fill="none" xmlns="http://www.w3.org/2000/svg">
<circle cx="16" cy="16" r="16" fill="#D5372E"/>
<g clip-path="url(#clip0_1911_130)">
<path d="M22.4802 8.87183H9.52017C9.00459 8.87183 8.51013 9.07664 8.14556 9.44121C7.78099 9.80578 7.57617 10.3002 7.57617 10.8158V19.8878C7.57617 20.4034 7.78099 20.8979 8.14556 21.2624C8.51013 21.627 9.00459 21.8318 9.52017 21.8318H15.3522V23.1278H13.4082C13.2363 23.1278 13.0715 23.1961 12.95 23.3176C12.8284 23.4391 12.7602 23.604 12.7602 23.7758C12.7602 23.9477 12.8284 24.1125 12.95 24.234C13.0715 24.3556 13.2363 24.4238 13.4082 24.4238H18.5922C18.764 24.4238 18.9289 24.3556 19.0504 24.234C19.1719 24.1125 19.2402 23.9477 19.2402 23.7758C19.2402 23.604 19.1719 23.4391 19.0504 23.3176C18.9289 23.1961 18.764 23.1278 18.5922 23.1278H16.6482V21.8318H22.4802C22.9958 21.8318 23.4902 21.627 23.8548 21.2624C24.2194 20.8979 24.4242 20.4034 24.4242 19.8878V10.8158C24.4242 10.3002 24.2194 9.80578 23.8548 9.44121C23.4902 9.07664 22.9958 8.87183 22.4802 8.87183ZM22.4802 20.5358H9.52017C9.34831 20.5358 9.18349 20.4676 9.06197 20.346C8.94044 20.2245 8.87217 20.0597 8.87217 19.8878V18.5918H23.1282V19.8878C23.1282 20.0597 23.0599 20.2245 22.9384 20.346C22.8169 20.4676 22.652 20.5358 22.4802 20.5358Z" fill="white"/>
</g>
<defs>
<clipPath id="clip0_1911_130">
<rect width="20.736" height="20.736" fill="white" transform="translate(5.63208 5.63208)"/>
</clipPath>
</defs>
</svg>
